<svg width="180" height="180" viewBox="0 0 180 180" fill="none" xmlns="http://www.w3.org/2000/svg">
  <!-- Background with gradient -->
  <defs>
    <linearGradient id="violetGradientIOS" x1="0%" y1="0%" x2="100%" y2="100%">
      <stop offset="0%" stop-color="#184e81"/>
      <stop offset="100%" stop-color="#0457a4"/>
    </linearGradient>
  </defs>

  <!-- Rounded square background -->
  <rect x="10" y="10" width="160" height="160" rx="32" fill="url(#violetGradientIOS)"/>
  
  <!-- Bootstrap compass icon (scaled for iOS, no text) -->
  <g transform="translate(90, 90) scale(1.6)">
    <circle cx="0" cy="0" r="30" fill="white"/>
    <path d="M0 -24 L6 -8 L0 -12 L-6 -8 L0 -24" fill="#184e81"/>
    <path d="M24 0 L8 -6 L12 0 L8 6 L24 0" fill="#184e81"/>
    <path d="M0 24 L6 8 L0 12 L-6 8 L0 24" fill="#184e81"/>
    <path d="M-24 0 L-8 6 L-12 0 L-8 -6 L-24 0" fill="#184e81"/>
    <circle cx="0" cy="0" r="8" fill="#184e81"/>
  </g>
</svg>